<svg xmlns="http://www.w3.org/2000/svg" enable-background="new 0 0 36 36" viewBox="0 0 36 36"><path fill="#efefef" d="m8.114 5.564c-1.805 6.677-6.504 10.327-7.374 13.545s-.847 10.475 13.955 14.477 19.432-4.501 20.388-8.041c4.481-16.572-23.772-31.807-26.969-19.981z"/><path fill="#a4afc1" d="m30.998 21.817h1v2h-1z" transform="rotate(-45.001 31.498 22.818)"/><path fill="#a4afc1" d="m26.932 17.752h1v2h-1z" transform="rotate(-45.001 27.432 18.752)"/><path fill="#a4afc1" d="m30.675 18.252h2v1h-2z" transform="rotate(-45.001 31.675 18.752)"/><path fill="#a4afc1" d="m7.75 19.5c-.827 0-1.5-.673-1.5-1.5s.673-1.5 1.5-1.5 1.5.673 1.5 1.5-.673 1.5-1.5 1.5zm0-2c-.276 0-.5.224-.5.5s.224.5.5.5.5-.224.5-.5-.224-.5-.5-.5z"/><path fill="#f3f3f1" d="M8.75 21.542h18.5v7.708h-18.5zM22.326 22.742l-9.534-1.957zM22.881 19.997l-8.692-4.342zM24.145 17.687l-7.616-5.862zM26.1 15.763l-5.722-7.513z"/><path fill="#d5dbe1" d="m8.75 21.542h2.25v7.708h-2.25z"/><path d="m27.25 30h-18.5c-.414 0-.75-.336-.75-.75v-7.708h1.5v6.958h17v-6.958h1.5v7.708c0 .414-.336.75-.75.75z"/><path d="m12.645 24.646h9.737v1.5h-9.737z"/><path d="m16.809 16.897h1.5v9.733h-1.5z" transform="rotate(-78.399 17.558 21.762)"/><path d="m17.785 12.968h1.5v9.716h-1.5z" transform="rotate(-63.455 18.534 17.825)"/><path d="m19.587 9.951h1.5v9.611h-1.5z" transform="rotate(-52.418 20.338 14.756)"/><path d="m22.489 7.285h1.5v9.444h-1.5z" transform="rotate(-37.295 23.239 12.007)"/></svg>