<svg xmlns="http://www.w3.org/2000/svg" fill-rule="evenodd" stroke-linejoin="round" stroke-miterlimit="2" clip-rule="evenodd" viewBox="0 0 512 512"><path fill="#fff" stroke="#000" stroke-linecap="round" stroke-miterlimit="1.5" stroke-width="3.84" d="M76.877,93.988L66.32,84.179L39.21,93.988L28.653,199.179L39.21,208.988L76.877,208.988L76.877,93.988Z" transform="matrix(2.55543 0 0 2.75013 -60.347 -68.746)"/><path fill="#fff" stroke="#000" stroke-linecap="round" stroke-miterlimit="1.5" stroke-width="3.71" d="M134.21,109.118C141.172,96.098 184.029,89.203 184.029,89.203C184.029,89.203 188.996,93.364 196.138,100.254C204.365,108.19 209.544,120.52 209.544,133.322L209.544,208.988L174.544,208.988L164.826,199.179L174.544,176.279L174.544,141.648C173.368,128.884 163.553,122.322 155.377,122.322C145.44,122.322 135.356,127.363 134.21,143.013L134.21,208.988L99.21,208.988L89.401,199.179L99.21,93.988L134.21,93.988L134.21,109.118Z" transform="translate(-70.731 -68.746) scale(2.75013)"/><path fill="#fff" stroke="#000" stroke-linecap="round" stroke-miterlimit="1.5" stroke-width="3.75" d="M64.645,39.423C64.645,39.423 71.777,46.538 75.527,50.139C79.442,53.897 81.877,59.163 81.877,64.988C81.877,76.395 72.542,85.655 61.044,85.655C55.384,85.655 50.249,83.412 46.493,79.773C42.618,76.02 36.144,69.506 36.144,69.506L64.645,39.423Z" transform="matrix(2.70613 0 0 2.72795 -75.379 -87.93)"/><rect width="37.667" height="115" x="39.21" y="93.988" fill="#fff" stroke="#000" stroke-linecap="round" stroke-miterlimit="1.5" stroke-width="3.84" transform="matrix(2.55543 0 0 2.75013 -87.324 -95.723)"/><path fill="#fff" stroke="#000" stroke-linecap="round" stroke-miterlimit="1.5" stroke-width="3.71" d="M134.21,109.118C141.172,96.098 154.245,89.988 169.21,89.988C191.471,89.988 209.544,109.405 209.544,133.322L209.544,208.988L174.544,208.988L174.544,141.648C173.368,128.884 163.553,122.322 155.377,122.322C145.44,122.322 135.356,127.363 134.21,143.013L134.21,208.988L99.21,208.988L99.21,93.988L134.21,93.988L134.21,109.118Z" transform="translate(-97.708 -95.723) scale(2.75013)"/><ellipse cx="61.044" cy="64.988" fill="#fff" stroke="#000" stroke-linecap="round" stroke-miterlimit="1.5" stroke-width="3.75" rx="20.833" ry="20.667" transform="matrix(2.70613 0 0 2.72795 -102.356 -114.908)"/><path fill="none" stroke="#000" stroke-linecap="round" stroke-linejoin="miter" stroke-miterlimit="5" stroke-width="3.67" d="M169.19,58.242L178.905,68.2" transform="translate(-360.697 33.672) scale(2.77691)"/><path fill="none" stroke="#000" stroke-linecap="round" stroke-linejoin="miter" stroke-miterlimit="5" stroke-width="3.67" d="M169.19,58.242L178.905,68.2" transform="translate(-360.697 65.664) scale(2.77691)"/><path fill="none" stroke="#000" stroke-linecap="round" stroke-linejoin="miter" stroke-miterlimit="5" stroke-width="3.67" d="M169.19,58.239L178.905,68.237" transform="translate(-360.697 100.322) scale(2.77691)"/><path fill="none" stroke="#000" stroke-linecap="round" stroke-linejoin="miter" stroke-miterlimit="5" stroke-width="3.67" d="M169.19,58.262L178.905,68.237" transform="translate(-360.697 133.317) scale(2.77691)"/><path fill="none" stroke="#000" stroke-linecap="round" stroke-linejoin="miter" stroke-miterlimit="5" stroke-width="3.67" d="M169.19,58.229L178.905,68.237" transform="translate(-360.697 168.317) scale(2.77691)"/><path fill="none" stroke="#000" stroke-linecap="round" stroke-linejoin="miter" stroke-miterlimit="5" stroke-width="3.67" d="M169.19,58.239L178.905,68.237" transform="translate(-360.697 205.323) scale(2.77691)"/><path fill="none" stroke="#000" stroke-linecap="round" stroke-linejoin="miter" stroke-miterlimit="5" stroke-width="3.67" d="M169.19,58.239L178.905,68.237" transform="translate(-360.697 239.981) scale(2.77691)"/><path fill="none" stroke="#000" stroke-linecap="round" stroke-linejoin="miter" stroke-miterlimit="5" stroke-width="3.67" d="M169.19,58.239L178.905,68.237" transform="translate(-360.697 278.751) scale(2.77691)"/><path fill="none" stroke="#000" stroke-linecap="round" stroke-linejoin="miter" stroke-miterlimit="5" stroke-width="3.67" d="M169.036,58.108L178.503,67.823" transform="translate(-391.443 317.663) scale(2.77691)"/><path fill="none" stroke="#000" stroke-linecap="round" stroke-linejoin="miter" stroke-miterlimit="5" stroke-width="3.67" d="M169.036,58.108L178.527,67.823" transform="translate(-423.435 317.663) scale(2.77691)"/><path fill="none" stroke="#000" stroke-linecap="round" stroke-linejoin="miter" stroke-miterlimit="5" stroke-width="3.67" d="M169.036,58.108L178.506,67.823" transform="translate(-263.752 317.663) scale(2.77691)"/><path fill="none" stroke="#000" stroke-linecap="round" stroke-linejoin="miter" stroke-miterlimit="5" stroke-width="3.67" d="M169.036,58.108L178.506,67.823" transform="translate(-230.581 317.663) scale(2.77691)"/><path fill="none" stroke="#000" stroke-linecap="round" stroke-linejoin="miter" stroke-miterlimit="5" stroke-width="3.97" d="M168.404,57.43L178.894,68.19" transform="translate(-161.703 299.037) scale(2.57173)"/><path fill="none" stroke="#000" stroke-linecap="round" stroke-linejoin="miter" stroke-miterlimit="5" stroke-width="3.97" d="M168.404,57.43L178.894,68.19" transform="translate(-161.703 267.045) scale(2.57173)"/><path fill="none" stroke="#000" stroke-linecap="round" stroke-linejoin="miter" stroke-miterlimit="5" stroke-width="3.97" d="M168.404,57.476L178.894,68.225" transform="translate(-161.703 235.053) scale(2.57173)"/><path fill="none" stroke="#000" stroke-linecap="round" stroke-linejoin="miter" stroke-miterlimit="5" stroke-width="3.97" d="M168.404,57.43L178.894,68.225" transform="translate(-161.703 202.158) scale(2.57173)"/><path fill="none" stroke="#000" stroke-linecap="round" stroke-linejoin="miter" stroke-miterlimit="5" stroke-width="3.97" d="M168.404,57.476L178.894,68.219" transform="translate(-161.703 170.166) scale(2.57173)"/><path fill="none" stroke="#000" stroke-linecap="round" stroke-linejoin="miter" stroke-miterlimit="5" stroke-width="3.97" d="M168.755,57.827L178.894,68.225" transform="translate(-161.703 140.941) scale(2.57173)"/><path fill="none" stroke="#000" stroke-linecap="round" stroke-linejoin="miter" stroke-miterlimit="5" stroke-width="3.97" d="M168.046,57.118L178.451,67.765" transform="translate(-152.711 120.708) scale(2.57173)"/><path fill="none" stroke="#000" stroke-linecap="round" stroke-linejoin="miter" stroke-miterlimit="5" stroke-width="3.97" d="M168.534,57.606L178.894,68.189" transform="translate(-139.222 102.723) scale(2.57173)"/><path fill="none" stroke="#000" stroke-linecap="round" stroke-linejoin="miter" stroke-miterlimit="5" stroke-width="3.97" d="M168.645,57.717L178.921,68.252" transform="translate(-118.989 93.73) scale(2.57173)"/><path fill="none" stroke="#000" stroke-linecap="round" stroke-linejoin="miter" stroke-miterlimit="5" stroke-width="3.97" d="M170,59.072L177.667,66.962" transform="translate(-22.044 329.783) scale(2.57173)"/><path fill="none" stroke="#000" stroke-linecap="round" stroke-linejoin="miter" stroke-miterlimit="5" stroke-width="3.97" d="M170,59.072L177.667,66.962" transform="translate(10.124 329.783) scale(2.57173)"/><path fill="none" stroke="#000" stroke-linecap="round" stroke-linejoin="miter" stroke-miterlimit="5" stroke-width="3.97" d="M168.54,57.57L179.01,68.305" transform="translate(45.124 300.039) scale(2.57173)"/><path fill="none" stroke="#000" stroke-linecap="round" stroke-linejoin="miter" stroke-miterlimit="5" stroke-width="3.97" d="M168.54,57.57L179.03,68.325" transform="translate(45.124 269.051) scale(2.57173)"/><path fill="none" stroke="#000" stroke-linecap="round" stroke-linejoin="miter" stroke-miterlimit="5" stroke-width="3.97" d="M168.54,57.612L179.01,68.344" transform="translate(45.124 240.067) scale(2.57173)"/><path fill="none" stroke="#000" stroke-linecap="round" stroke-linejoin="miter" stroke-miterlimit="5" stroke-width="3.97" d="M168.54,57.57L179.03,68.325" transform="translate(45.124 211.084) scale(2.57173)"/><path fill="none" stroke="#000" stroke-linecap="round" stroke-linejoin="miter" stroke-miterlimit="5" stroke-width="3.97" d="M168.54,57.57L179.01,68.344" transform="translate(45.124 179.192) scale(2.57173)"/><path fill="none" stroke="#000" stroke-linecap="round" stroke-linejoin="miter" stroke-miterlimit="5" stroke-width="3.97" d="M168.54,57.57L179.03,68.365" transform="translate(45.124 148.203) scale(2.57173)"/><path fill="none" stroke="#000" stroke-linecap="round" stroke-linejoin="miter" stroke-miterlimit="5" stroke-width="3.97" d="M168.54,57.57L179.01,68.344" transform="translate(45.124 118.46) scale(2.57173)"/><path fill="none" stroke="#000" stroke-linecap="round" stroke-linejoin="miter" stroke-miterlimit="5" stroke-width="3.97" d="M168.56,57.632L179.205,68.5" transform="translate(40.628 89.234) scale(2.57173)"/><path fill="none" stroke="#000" stroke-linecap="round" stroke-linejoin="miter" stroke-miterlimit="5" stroke-width="3.97" d="M166.056,55.127L178.196,67.491" transform="translate(29.387 57.76) scale(2.57173)"/><path fill="none" stroke="#000" stroke-linecap="round" stroke-linejoin="miter" stroke-miterlimit="5" stroke-width="3.97" d="M168.789,57.825L178.925,68.22" transform="translate(-92.012 93.73) scale(2.57173)"/><path fill="none" stroke="#000" stroke-linecap="round" stroke-linejoin="miter" stroke-miterlimit="5" stroke-width="3.67" d="M169.19,58.239L178.905,68.2" transform="translate(-360.697 315.415) scale(2.77691)"/><path fill="none" stroke="#000" stroke-linecap="round" stroke-linejoin="miter" stroke-miterlimit="5" stroke-width="3.67" d="M170,59.072L177.667,66.962" transform="translate(-201.08 315.415) scale(2.77691)"/><path fill="none" stroke="#000" stroke-linecap="round" stroke-linejoin="miter" stroke-miterlimit="5" stroke-width="3.67" d="M170,59.072L177.667,66.962" transform="translate(5.747 315.415) scale(2.77691)"/><path fill="none" stroke="#000" stroke-linecap="round" stroke-linejoin="miter" stroke-miterlimit="5" stroke-width="3.71" d="M169.282,58.333L178.993,68.327" transform="translate(-353.586 -69.778) scale(2.74843)"/><path fill="none" stroke="#000" stroke-linecap="round" stroke-linejoin="miter" stroke-miterlimit="5" stroke-width="3.71" d="M169.085,58.157L178.757,68.052" transform="translate(-374.657 -48.093) scale(2.74843)"/><path fill="none" stroke="#000" stroke-linecap="round" stroke-linejoin="miter" stroke-miterlimit="5" stroke-width="3.53" d="M169.44,58.511L178.78,68.107" transform="translate(-370.166 -107.791) scale(2.88823)"/><path fill="none" stroke="#000" stroke-linecap="round" stroke-linejoin="miter" stroke-miterlimit="5" stroke-width="3.53" d="M169.47,58.542L178.55,67.871" transform="translate(-427.857 -50.328) scale(2.88823)"/></svg>