<svg xmlns="http://www.w3.org/2000/svg" enable-background="new 0 0 36 36" viewBox="0 0 36 36"><path fill="#efefef" d="m34.928 20.591c-3.693-5.848-3.199-11.778-4.979-14.596s-7.138-7.714-20.103.473-9.84 17.35-7.882 20.45c9.166 14.515 39.504 4.031 32.964-6.327z"/><g fill="#a4afc1"><path d="m7.033 3.555h2v1h-2z" transform="rotate(-45.001 8.033 4.056)"/><path d="m2.967 7.621h2v1h-2z" transform="rotate(-45.001 3.967 8.121)"/><path d="m3.467 2.878h1v2h-1z" transform="rotate(-45.001 3.967 3.879)"/><path d="m30 12.596c-.827 0-1.5-.673-1.5-1.5s.673-1.5 1.5-1.5 1.5.673 1.5 1.5-.673 1.5-1.5 1.5zm0-2c-.276 0-.5.224-.5.5s.224.5.5.5.5-.224.5-.5-.224-.5-.5-.5z"/></g><path fill="#f3f3f1" d="m29.245 29.25v-.001h.005v-8.252c0-4.037-.869-7.146-5.588-7.146-2.269 0-3.791 1.245-4.413 2.426h-.065v-2.049h-4.474v15.021h4.66v-7.438c0-1.959.372-3.852 2.797-3.852 2.39 0 2.425 2.235 2.425 3.978v7.313z"/><path fill="#2fdf84" d="M7.122 14.229h4.665v15.021h-4.665zM9.451 6.75c-1.491 0-2.701 1.211-2.701 2.702s1.21 2.727 2.701 2.727 2.702-1.235 2.702-2.727c0-1.491-1.21-2.702-2.702-2.702z"/><path fill="#d5dbe1" d="M21.433 16.276h.065c.526-.997 1.7-2.032 3.418-2.332-.387-.056-.798-.094-1.255-.094-.85 0-1.596.175-2.229.456v1.97zM14.709 14.227h2.25v15.021h-2.25zM24.415 17.959c-.479 0-.858.091-1.189.225 1.318.591 1.364 2.327 1.364 3.753v7.312h2.25v-7.312c0-1.743-.035-3.978-2.425-3.978z"/><path fill="#00b871" d="M7.122 14.229h2.25v15.021h-2.25zM9 9.452c0-1.089.648-2.022 1.576-2.45-.343-.158-.722-.252-1.125-.252-1.491 0-2.701 1.211-2.701 2.702s1.21 2.727 2.701 2.727c.403 0 .781-.096 1.125-.257-.928-.435-1.576-1.381-1.576-2.47z"/><path d="M29.245 30h-4.655c-.414 0-.75-.336-.75-.75v-7.312c0-2.232-.242-3.228-1.675-3.228-1.296 0-2.046.507-2.046 3.102v7.438c0 .414-.336.75-.75.75h-4.66c-.414 0-.75-.336-.75-.75v-15.022c0-.414.336-.75.75-.75h4.474c.414 0 .75.336.75.75v.12c.902-.709 2.155-1.247 3.729-1.247 5.618 0 6.338 4.22 6.338 7.896v8.252c0 .414-.336.75-.75.75zm-3.905-1.5h3.16v-7.503c0-4.663-1.312-6.396-4.838-6.396-1.98 0-3.257 1.091-3.75 2.025-.13.246-.385.4-.664.4-.414 0-.815-.336-.815-.75v-1.298h-2.974v13.521h3.16v-6.688c0-1.138 0-4.602 3.546-4.602 3.175 0 3.175 3.076 3.175 4.728zM11.787 30h-4.665c-.414 0-.75-.336-.75-.75v-15.021c0-.414.336-.75.75-.75h4.665c.414 0 .75.336.75.75v15.021c0 .414-.336.75-.75.75zm-3.915-1.5h3.165v-13.521h-3.165zM9.452 12.929c-1.904 0-3.452-1.56-3.452-3.477 0-1.903 1.548-3.452 3.452-3.452 1.903 0 3.451 1.549 3.451 3.452 0 1.917-1.549 3.477-3.451 3.477zm0-5.429c-1.077 0-1.952.875-1.952 1.952 0 1.09.875 1.977 1.952 1.977 1.076 0 1.951-.887 1.951-1.977 0-1.077-.876-1.952-1.951-1.952z"/></svg>