<svg xmlns="http://www.w3.org/2000/svg" enable-background="new 0 0 36 36" viewBox="0 0 36 36"><path fill="#EFEFEF" d="M27.417,3.914c-6.915,0.129-11.732-3.365-15.064-3.302S2.057,2.721,2.344,18.052s9.744,17.404,13.41,17.336C32.917,35.067,39.665,3.685,27.417,3.914z"/><path fill="#A4AFC1" d="M29.25,25.96c-0.827,0-1.5-0.673-1.5-1.5s0.673-1.5,1.5-1.5s1.5,0.673,1.5,1.5S30.077,25.96,29.25,25.96z M29.25,23.96c-0.276,0-0.5,0.225-0.5,0.5s0.224,0.5,0.5,0.5s0.5-0.225,0.5-0.5S29.526,23.96,29.25,23.96z"/><rect width="1" height="2" x="3.184" y="6.341" fill="#A4AFC1"/><rect width="1" height="2" x="3.184" y="12.091" fill="#A4AFC1"/><rect width="2" height="1" x="-.316" y="9.591" fill="#A4AFC1"/><rect width="2" height="1" x="5.434" y="9.591" fill="#A4AFC1"/><polygon fill="#F3F3F1" points="13.598 21.306 13.598 22.25 17.511 22.25 17.511 21.306 29.25 21.306 29.25 13.75 6.75 13.75 6.75 21.306"/><polygon fill="#2FDF84" points="20.358 13.81 20.358 21.194 29.25 21.194 29.25 13.75"/><rect width="2.25" height="7.556" x="6.75" y="13.75" fill="#D5DBE1"/><rect width="2.25" height=".944" x="13.598" y="21.306" fill="#D5DBE1"/><polygon fill="#00B871" points="29.25 13.765 29.25 13.75 20.358 13.81 20.358 21.194 22.608 21.194 22.608 13.81"/><path d="M17.511,23h-3.913c-0.414,0-0.75-0.336-0.75-0.75v-0.194H6.75c-0.414,0-0.75-0.336-0.75-0.75V13.75C6,13.336,6.336,13,6.75,13h22.5c0.414,0,0.75,0.336,0.75,0.75v7.556c0,0.414-0.336,0.75-0.75,0.75H18.261v0.194C18.261,22.664,17.925,23,17.511,23z M14.348,21.5h2.413v-0.194c0-0.414,0.336-0.75,0.75-0.75H28.5V14.5h-21v6.056h6.098c0.414,0,0.75,0.336,0.75,0.75V21.5z"/><rect width="1.5" height="7.556" x="12.848" y="13.75"/><rect width="1.5" height="7.556" x="19.696" y="13.75"/><rect width="1.5" height="4.723" x="22.63" y="16.583"/><rect width="1.5" height="4.723" x="9.913" y="16.583"/><rect width="1.5" height="4.723" x="25.565" y="16.583"/><rect width="1.5" height="1.89" x="16.761" y="16.583"/></svg>