<svg xmlns="http://www.w3.org/2000/svg" enable-background="new 0 0 36 36" viewBox="0 0 36 36"><path fill="#efefef" d="m34.904 20.355c-3.782-5.791-3.38-11.727-5.203-14.518s-7.256-7.603-20.093.782-9.572 17.5-7.566 20.569c9.388 14.372 39.561 3.423 32.862-6.833z"/><g fill="#a4afc1"><path d="m7.783 5.859h2v1h-2z" transform="rotate(-45.001 8.783 6.359)"/><path d="m3.717 9.925h2v1h-2z" transform="rotate(-45.001 4.717 10.425)"/><path d="m4.217 5.182h1v2h-1z" transform="rotate(-45.009 4.717 6.182)"/></g><path fill="#f3f3f1" d="m29 10c-.892.523-2 .875-3.303.437-.847-.888-2.053-1.437-3.369-1.437-2.554 0-4.61 2.041-4.61 4.542 0 .36.031.706.107 1.036-3.834-.185-7.228-1.994-9.508-4.751-.398.68-.632 1.458-.632 2.296 0 1.573.822 2.967 2.049 3.774-.742-.014-1.468-.226-2.084-.559v.05c0 2.207 1.598 4.04 3.696 4.463-.376.101-.785.149-1.21.149-.295 0-.593-.017-.873-.078.597 1.798 2.294 3.121 4.31 3.164-1.569 1.208-3.562 1.937-5.72 1.937-.378 0-.741-.017-1.103-.062 2.044 1.298 4.464 2.039 7.076 2.039 8.488 0 13.129-6.923 13.129-12.924 0-.2-.007-.395-.017-.587.915-.64 2.062-2.156 2.062-3.489z"/><path fill="#d5dbe1" d="M20.075 14.578c-.076-.33-.107-.676-.107-1.036 0-2.119 1.482-3.894 3.486-4.391-.364-.09-.738-.151-1.126-.151-2.554 0-4.61 2.041-4.61 4.542 0 .242.021.475.053.704.747.171 1.513.294 2.304.332zM28.915 10.627c.05-.211.085-.421.085-.627-.307.18-.642.337-1 .451.317.102.622.159.915.176zM9 24.962c.363.045.726.062 1.103.062 2.157 0 4.15-.728 5.72-1.937-2.016-.043-3.713-1.366-4.31-3.164.28.061.578.077.873.077.425 0 .833-.048 1.209-.15-2.097-.422-3.695-2.255-3.695-4.462 0-.018 0-.036 0-.05.616.333 1.343.546 2.084.559-1.227-.808-2.049-2.202-2.049-3.774 0-.215.017-.426.046-.633-.601-.507-1.164-1.057-1.664-1.663-.398.68-.632 1.458-.632 2.296 0 1.573.822 2.967 2.049 3.774-.742-.014-1.468-.226-2.084-.559v.05c0 2.207 1.598 4.04 3.696 4.463-.376.101-.785.149-1.21.149-.295 0-.593-.017-.873-.078.597 1.798 2.294 3.121 4.31 3.164-1.569 1.208-3.562 1.937-5.72 1.937-.378 0-.741-.017-1.103-.062 2.044 1.298 4.464 2.039 7.076 2.039.371 0 .726-.03 1.083-.055-2.165-.187-4.174-.882-5.909-1.983z"/><path d="m13.826 27.75c-2.67 0-5.256-.745-7.478-2.155-.296-.188-.422-.556-.304-.886.119-.331.445-.535.798-.491.306.038.637.056 1.011.056 1.3 0 2.585-.296 3.745-.85-1.415-.588-2.547-1.762-3.047-3.264-.085-.256-.026-.538.154-.738.012-.014.024-.026.038-.039-1.137-.984-1.843-2.426-1.843-3.995 0-.264.139-.534.366-.669.092-.055.193-.093.297-.11-.407-.753-.628-1.604-.628-2.486 0-.94.247-1.84.734-2.674.123-.212.343-.349.587-.369.244-.018.482.081.639.269 2.026 2.45 4.932 4.025 8.077 4.405-.002-.069-.003-.14-.003-.211 0-2.918 2.404-5.292 5.36-5.292 1.406 0 2.769.554 3.77 1.526.833.233 1.638.097 2.523-.423.232-.135.52-.137.752-.004s.376.381.376.65c0 1.499-1.107 3.037-2.048 3.843.002.077.003.155.003.233 0 6.722-5.191 13.674-13.879 13.674zm-4.04-2.162c1.288.437 2.651.662 4.041.662 7.749 0 12.379-6.19 12.379-12.174 0-.188-.007-.371-.016-.551-.013-.257.108-.503.319-.651.495-.346 1.024-.961 1.368-1.609-.811.19-1.619.152-2.418-.117-.116-.039-.22-.105-.304-.193-.73-.766-1.761-1.205-2.827-1.205-2.128 0-3.86 1.701-3.86 3.792 0 .328.029.611.088.867.053.229-.005.469-.155.65-.15.18-.365.277-.612.268-3.497-.168-6.802-1.656-9.238-4.124-.077.3-.116.607-.116.919 0 1.266.64 2.442 1.712 3.148.279.184.403.53.304.849s-.383.531-.73.528c-.382-.007-.767-.059-1.144-.152.413 1.316 1.515 2.338 2.917 2.62.341.069.59.363.602.711s-.218.658-.554.749c-.321.086-.664.142-1.024.164.703.961 1.832 1.572 3.072 1.598.318.007.597.214.696.516.1.302-.003.634-.255.828-1.242.956-2.705 1.608-4.245 1.907z"/></svg>