<svg xmlns="http://www.w3.org/2000/svg" enable-background="new 0 0 50 50" viewBox="0 0 50 50"><path fill="#494949" d="M23.9036922,40.9021263c-0.4246902,0.9477348-1.5156422,1.3621216-2.3182564,2.0211983
		c-1.2710743,1.0437546-1.3868275,3.7630577,1.7303696,2.2299843c2.1865349-1.0753632,4.8859749-1.0385551,7.0423775,0.0960274
		c0.5815907,0.3059998,1.2487831,0.6969566,1.8489933,0.4293213c0.96875-0.4319725,0.5635872-1.9593925-0.2433586-2.6478004
		c-1.5372562-1.3114471-3.961689-1.6262398-4.907217-3.4120216c-0.3503284-0.6616554-0.6136589-0.9742813-1.3432808-0.4368324
		c-1.2144051,0.8945427-1.6717358,0.6963501-1.9021969,2.1489677"/><path fill="#D7D7D7" d="M29.447113,4.3610921c5.233387-0.6400602,10.767292,2.3573389,12.9075127,7.1757913
		c3.0125542,6.7823935,0.2064819,24.1222382-9.1332359,28.2852478c-5.1660519,2.3026733-11.1470318,0.704998-16.5648155-0.9191933
		c-6.9924068-2.096241-12.3072367-4.2993011-15.156517-12.0061531c4.5409513,1.3262806,5.6410966-1.0616951,9.5097866-2.6218624
		c2.7281609-1.100214,4.5613041-1.1573448,5.8558111-4.150692c1.5489616-3.5817318,1.1702766-7.2661028,3.6832561-10.5320301
		C22.6978397,6.7994022,25.9246979,4.7919807,29.447113,4.3610921z"/><path fill="#CEEFFA" d="M10.3374357,20.4849701c0.8150463-0.6721649,1.4907808,2.2249966,5.2894182,5.4238586
		c-0.1750221-0.1473866,0.208293-2.0877476,0.26367-2.3481827c0.1758747,0.7512779,2.7892494,3.9996262,6.765913,2.9336319
		c1.2518196-0.3355656,8.2600231-1.4526367,10.0381851-1.2044525c0.9636726,0.1345024,0.5699348,0.5473614,0.1579399,1.2345695
		c-0.3990326,0.6655903-0.8415298,1.308363-1.3896255,1.8611813c-3.2686863,3.2968502-11.0544872,4.7560978-15.5051565,3.8927746
		c-1.3104134-0.2541924-2.5658388-0.6834564-3.8714647-0.9478645c-2.6026011-0.5270596-4.9521966-3.0592232-6.0373969-5.3640423
		c-1.9751806-4.1950169-3.6331494-6.8197441-3.4126916-9.8350449c3.3479295,1.3859749,5.2863102,4.6497612,7.0414762,7.6773624
		c-0.1780453-0.3071232,0.4463005-1.7267818,0.5026426-2.1165504
		C10.2214117,21.4081268,10.0999088,20.6808567,10.3374357,20.4849701z"/><path fill="#494949" d="M37.1090469 11.3929491c-1.9671173-1.0784683-4.6027603 1.4580269-3.3074989 3.4151793 1.1895256 1.7972107 3.9836998 1.2806797 4.4526405-.8224134C38.474762 12.9965143 37.9977455 11.8801746 37.1090469 11.3929491zM44.196373 14.3178682c-.1397629.2828236-.2795219.5656471-.4192848.8484707 1.2756653-1.8453922 2.8834152-3.460494 4.7229691-4.7445669-2.2708702-.0381613-4.5391731-.2282667-6.7847137-.5686226-2.9446793.1755762-1.5612488 5.2967281-.4132652 5.9782562.7174988.4259624 1.6806641.1796074 2.317688-.3593254C44.2567902 14.9331465 43.828949 15.0670328 44.196373 14.3178682z"/><path d="M37.3495865,10.9552336c-2.3960724-1.3213778-5.544817,1.7235231-3.9599609,4.1300049
				c1.4287529,2.1822138,4.7951813,1.5251627,5.3499756-0.9899902
				C39.0196304,12.8652678,38.4296036,11.5452604,37.3495865,10.9552336z M35.829628,15.4052458
				c-1.2480698,0-2.348793-1.2301731-1.6500244-2.5499878c0.4950905-0.9140167,1.6939125-1.5596104,2.6900024-1.0200195
				C38.4955597,12.7071114,37.9360466,15.4052458,35.829628,15.4052458z"/><path d="M48.5096207,9.9252653c-4.2601166-0.076148-6.3398438-0.5700073-6.8400269-0.5700073
				C36.6507225,2.2399125,26.032917,1.6521212,20.1495743,9.2852507c-3.6787395,4.819766-1.6528168,11.5736361-6.8099976,13.5900259
				c-1.4977465-1.8484516-2.2570086-3.6555691-3.3199463-2.7800293c-0.4736834,0.3924103-0.2948112,1.283802-0.3300171,1.5300293
				c-0.0200195,0.1099854-0.1000366,0.3299561-0.1799927,0.5799561c-0.0300293,0.0700073-0.0500488,0.1400146-0.0700073,0.2000122
				c-1.5499873-2.5999756-3.5100093-5.4500122-6.6099854-6.7399893c-0.1500244-0.0599976-0.3200073-0.039978-0.460022,0.039978
				c-0.1300049,0.0800171-0.2200317,0.2300415-0.2299805,0.3900137C1.9143999,19.189085,3.4977541,21.7962685,5.599587,26.1752644
				c0.0400391,0.0899658,0.0900269,0.1799927,0.1400146,0.2699585c-1.3372898,0.5254421-2.7106869,0.3835278-4.0999756-0.0299683
				c-0.4054915-0.1125755-0.7416549,0.2651482-0.6100464,0.6599731c2.960022,7.9900532,8.5200195,10.2200336,15.4800415,12.3099995
				c4.8014755,1.4382935,6.2339535,1.5848999,6.692688,1.6904297c-0.4618645,0.5489807-1.2753983,0.9192352-1.9343872,1.4614258
				c-0.8305664,0.6821289-1.3564453,2.0615234-0.7836914,2.9501953c1.446991,2.2471466,4.6147327-2.4401703,9.6416016,0.2045898
				l0.1049805,0.0556641c3.1199265,1.6543007,3.9184303-1.5093307,2.0576172-3.097168
				c-0.6552734-0.559082-1.4379883-0.9399414-2.1953125-1.3081055c-0.0401611-0.0195313-0.0745239-0.0410156-0.1143188-0.0606079
				c10.5349007-1.6408195,14.758461-15.735714,13.8807983-25.366394c0.3268089-0.2178717,0.5823441-0.5264568,0.6500244-0.9100342
				c1.1900024-1.6199951,2.6300049-3.0199585,4.2799683-4.1699829c0.1699829-0.1300049,0.25-0.3499756,0.1900024-0.5599976
				C48.9195938,10.06528,48.7295914,9.9252653,48.5096207,9.9252653z M3.1196063,16.9052448
				c4.7943296,2.5233536,5.5644693,8.0663757,6.8099976,7.3400269c0.210022-0.1300049,0.2999878-0.3900146,0.2199707-0.6100464
				c0-0.6835461,0.5300293-1.0232048,0.5300293-2.6300049c0.7588453,0.8432484,1.8064842,2.9122295,4.6199951,5.2800293
				c0,0,0,0,0,0.0100098c0.437768,0.3381939,1.0046425-0.1223488,0.7800293-0.6000366
				c-0.0100098-0.1399536,0.0299683-0.4499512,0.0799561-0.7999878c3.9249401,4.4736118,7.9564552,0.8599854,15.8699951,0.8599854
				c0.2400513,0,0.4400024,0.0100098,0.6000366,0.0300293c0.0299683,0,0.0599976,0.0100098,0.0799561,0.0100098
				c-0.039978,0.0800171-0.0999756,0.1699829-0.1399536,0.2399902l-0.1500244,0.2299805
				c-0.4500122,0.7600098-0.8699951,1.3200073-1.3099976,1.7700195c-3.1415234,3.1657124-10.7731667,4.5966434-15.0599976,3.75
				c-4.7124271-0.9424839-7.5161343-1.7362404-9.5499878-6.0300293C4.864429,22.2051506,3.2106798,19.5981483,3.1196063,16.9052448z
				 M31.6390152,43.4111061c0.7201042,0.6135483,1.2969246,2.6391678-0.9399414,1.4526367l-0.1079102-0.0566406
				c-4.9555588-2.6066818-8.6330757,1.1219444-9.2661133,0.1386719c-0.2138672-0.331543,0.027832-1.1845703,0.5776367-1.6362305
				c0.6128922-0.5030823,1.3942013-0.8508186,1.9770508-1.4829102c0.3366623-0.0472107,0.4049301-0.3094177,0.453125-0.5710449
				c1.6171627,0.2196884,2.760149,0.2409744,3.8724976,0.1997681C29.40341,42.218483,30.6971493,42.6076775,31.6390152,43.4111061z
				 M33.0196304,39.3652687c-5.0060902,2.2481842-10.9649677,0.6395111-16.2200317-0.9400024
				c-6.4199829-1.9299927-11.5999756-3.9700317-14.4799805-10.8099995c0.5599976,0.1099854,1.0799561,0.1699829,1.5799561,0.1699829
				c0.8900149,0,1.6400149-0.1799927,2.3400271-0.4500122c1.795547,2.8500538,3.5137086,4.2794952,9.6199951,5.4299946
				c4.5854588,0.896244,12.5197449-0.5543861,15.960022-4.0299702c0.5-0.5,0.9599609-1.1199951,1.4599609-1.9500122
				l0.1400146-0.2199707c0.2600098-0.4200439,0.5-0.8100586,0.2999878-1.2300415
				c-0.1699829-0.3900146-0.5999756-0.4899902-0.9599609-0.539978c-2.6445484-0.3839035-10.761404,1.4099731-11.6799927,1.4099731
				c-2.8800049,0-4.6100464-2.3599854-4.7000122-2.7600098c-0.1279106-0.490303-0.8655262-0.516201-0.9800415,0.0100098
				c-0.1199951,0.5599976-0.1999512,1.0100098-0.25,1.3600464c-0.4199829-0.3900146-0.789978-0.7700195-1.1199951-1.1400146
				c5.3810501-2.2889366,3.4321842-9.2649536,6.9200439-13.7800283c5.3209763-6.9297304,14.9349518-6.5952778,19.7099609-0.25
				c-2.1866875,1.1745386-0.982769,5.8019104,0.3900146,6.6199942c0.3200073,0.1900024,0.6799927,0.2800293,1.0800171,0.2800293
				c0.2699585,0,0.539978-0.0400391,0.7999878-0.1300049C43.5395889,24.1852741,40.5295792,36.0152321,33.0196304,39.3652687z
				 M44.159584,13.81528c-0.1699829,0.0199585-0.3299561,0.1199951-0.4099731,0.2799683
				c-0.4221344,0.8717728-0.4416428,0.83986-0.4700317,1.0100098c-0.4030724,0.3455915-1.1923218,0.6104202-1.7199707,0.2999878
				c-0.5499878-0.3300171-1.3800049-2.5200195-1.0200195-3.9799805c0.396019-1.7284536,1.3620415-0.7804308,6.5300293-0.5499878
				C45.9896011,11.7552214,45.0196304,12.7352629,44.159584,13.81528z"/></svg>